<mxfile host="app.diagrams.net" modified="2024-07-01T04:12:58.600Z" agent="Mozilla/5.0 (Macintosh; Intel Mac OS X 10_15_7) AppleWebKit/537.36 (KHTML, like Gecko) Chrome/126.0.0.0 Safari/537.36" etag="2Lu2xo5g6ZPica4twtVy" version="24.6.4" type="github">
  <diagram name="Page-1" id="EG27Yq6V2gLIrQZal8aT">
    <mxGraphModel dx="1060" dy="646" grid="1" gridSize="10" guides="1" tooltips="1" connect="1" arrows="1" fold="1" page="1" pageScale="1" pageWidth="827" pageHeight="1169" math="0" shadow="0">
      <root>
        <mxCell id="0" />
        <mxCell id="1" parent="0" />
        <mxCell id="_0JpzeiReMIAh61v94WM-1" value="" style="rounded=0;whiteSpace=wrap;html=1;" vertex="1" parent="1">
          <mxGeometry x="130" y="40" width="330" height="360" as="geometry" />
        </mxCell>
        <mxCell id="_0JpzeiReMIAh61v94WM-2" value="" style="endArrow=classic;html=1;rounded=0;" edge="1" parent="1">
          <mxGeometry width="50" height="50" relative="1" as="geometry">
            <mxPoint x="70" y="80" as="sourcePoint" />
            <mxPoint x="130" y="80" as="targetPoint" />
          </mxGeometry>
        </mxCell>
        <mxCell id="_0JpzeiReMIAh61v94WM-3" value="&lt;font style=&quot;font-size: 24px;&quot;&gt;Clk&lt;/font&gt;" style="text;html=1;align=center;verticalAlign=middle;resizable=0;points=[];autosize=1;strokeColor=none;fillColor=none;" vertex="1" parent="1">
          <mxGeometry x="55" y="45" width="60" height="40" as="geometry" />
        </mxCell>
        <mxCell id="_0JpzeiReMIAh61v94WM-4" value="" style="endArrow=classic;html=1;rounded=0;" edge="1" parent="1">
          <mxGeometry width="50" height="50" relative="1" as="geometry">
            <mxPoint x="70" y="120" as="sourcePoint" />
            <mxPoint x="130" y="120" as="targetPoint" />
          </mxGeometry>
        </mxCell>
        <mxCell id="_0JpzeiReMIAh61v94WM-5" value="&lt;font style=&quot;font-size: 24px;&quot;&gt;Reset&lt;/font&gt;" style="text;html=1;align=center;verticalAlign=middle;resizable=0;points=[];autosize=1;strokeColor=none;fillColor=none;" vertex="1" parent="1">
          <mxGeometry x="35" y="85" width="90" height="40" as="geometry" />
        </mxCell>
        <mxCell id="_0JpzeiReMIAh61v94WM-6" value="" style="endArrow=classic;html=1;rounded=0;" edge="1" parent="1">
          <mxGeometry width="50" height="50" relative="1" as="geometry">
            <mxPoint x="70" y="160" as="sourcePoint" />
            <mxPoint x="130" y="160" as="targetPoint" />
          </mxGeometry>
        </mxCell>
        <mxCell id="_0JpzeiReMIAh61v94WM-7" value="&lt;font style=&quot;font-size: 24px;&quot;&gt;f_Sync&lt;/font&gt;" style="text;html=1;align=center;verticalAlign=middle;resizable=0;points=[];autosize=1;strokeColor=none;fillColor=none;" vertex="1" parent="1">
          <mxGeometry x="30" y="125" width="100" height="40" as="geometry" />
        </mxCell>
        <mxCell id="_0JpzeiReMIAh61v94WM-8" value="" style="endArrow=classic;html=1;rounded=0;" edge="1" parent="1">
          <mxGeometry width="50" height="50" relative="1" as="geometry">
            <mxPoint x="70" y="195" as="sourcePoint" />
            <mxPoint x="130" y="195" as="targetPoint" />
          </mxGeometry>
        </mxCell>
        <mxCell id="_0JpzeiReMIAh61v94WM-9" value="&lt;font style=&quot;font-size: 24px;&quot;&gt;Sync&lt;/font&gt;" style="text;html=1;align=center;verticalAlign=middle;resizable=0;points=[];autosize=1;strokeColor=none;fillColor=none;" vertex="1" parent="1">
          <mxGeometry x="40" y="160" width="80" height="40" as="geometry" />
        </mxCell>
        <mxCell id="_0JpzeiReMIAh61v94WM-10" value="" style="endArrow=classic;html=1;rounded=0;" edge="1" parent="1">
          <mxGeometry width="50" height="50" relative="1" as="geometry">
            <mxPoint x="70" y="235" as="sourcePoint" />
            <mxPoint x="130" y="235" as="targetPoint" />
          </mxGeometry>
        </mxCell>
        <mxCell id="_0JpzeiReMIAh61v94WM-11" value="&lt;span style=&quot;font-size: 24px;&quot;&gt;[2:0]Mode&lt;/span&gt;" style="text;html=1;align=center;verticalAlign=middle;resizable=0;points=[];autosize=1;strokeColor=none;fillColor=none;" vertex="1" parent="1">
          <mxGeometry y="200" width="130" height="40" as="geometry" />
        </mxCell>
        <mxCell id="_0JpzeiReMIAh61v94WM-12" value="" style="endArrow=classic;html=1;rounded=0;" edge="1" parent="1">
          <mxGeometry width="50" height="50" relative="1" as="geometry">
            <mxPoint x="70" y="275" as="sourcePoint" />
            <mxPoint x="130" y="275" as="targetPoint" />
          </mxGeometry>
        </mxCell>
        <mxCell id="_0JpzeiReMIAh61v94WM-13" value="&lt;font style=&quot;font-size: 24px;&quot;&gt;[1:0]X&lt;/font&gt;" style="text;html=1;align=center;verticalAlign=middle;resizable=0;points=[];autosize=1;strokeColor=none;fillColor=none;" vertex="1" parent="1">
          <mxGeometry x="40" y="240" width="90" height="40" as="geometry" />
        </mxCell>
        <mxCell id="_0JpzeiReMIAh61v94WM-14" value="" style="endArrow=classic;html=1;rounded=0;" edge="1" parent="1">
          <mxGeometry width="50" height="50" relative="1" as="geometry">
            <mxPoint x="70" y="315" as="sourcePoint" />
            <mxPoint x="130" y="315" as="targetPoint" />
          </mxGeometry>
        </mxCell>
        <mxCell id="_0JpzeiReMIAh61v94WM-15" value="&lt;font style=&quot;font-size: 24px;&quot;&gt;[1:0]Y&lt;/font&gt;" style="text;html=1;align=center;verticalAlign=middle;resizable=0;points=[];autosize=1;strokeColor=none;fillColor=none;" vertex="1" parent="1">
          <mxGeometry x="40" y="280" width="90" height="40" as="geometry" />
        </mxCell>
        <mxCell id="_0JpzeiReMIAh61v94WM-16" value="" style="endArrow=classic;html=1;rounded=0;" edge="1" parent="1">
          <mxGeometry width="50" height="50" relative="1" as="geometry">
            <mxPoint x="70" y="355" as="sourcePoint" />
            <mxPoint x="130" y="355" as="targetPoint" />
          </mxGeometry>
        </mxCell>
        <mxCell id="_0JpzeiReMIAh61v94WM-17" value="&lt;font style=&quot;font-size: 24px;&quot;&gt;[11:0]Val&lt;/font&gt;" style="text;html=1;align=center;verticalAlign=middle;resizable=0;points=[];autosize=1;strokeColor=none;fillColor=none;" vertex="1" parent="1">
          <mxGeometry x="20" y="320" width="110" height="40" as="geometry" />
        </mxCell>
        <mxCell id="_0JpzeiReMIAh61v94WM-18" value="" style="endArrow=classic;html=1;rounded=0;" edge="1" parent="1">
          <mxGeometry width="50" height="50" relative="1" as="geometry">
            <mxPoint x="460" y="237" as="sourcePoint" />
            <mxPoint x="570" y="237" as="targetPoint" />
          </mxGeometry>
        </mxCell>
        <mxCell id="_0JpzeiReMIAh61v94WM-19" value="&lt;font style=&quot;font-size: 24px;&quot;&gt;[11:0]Cnt&lt;/font&gt;" style="text;html=1;align=center;verticalAlign=middle;resizable=0;points=[];autosize=1;strokeColor=none;fillColor=none;" vertex="1" parent="1">
          <mxGeometry x="460" y="200" width="120" height="40" as="geometry" />
        </mxCell>
      </root>
    </mxGraphModel>
  </diagram>
</mxfile>
